<?xml version="1.0" encoding="UTF-8" standalone="no"?>
<!-- Created with Inkscape (http://www.inkscape.org/) -->

<svg
   width="50mm"
   height="17mm"
   viewBox="0 0 50 17"
   version="1.1"
   id="svg21"
   xml:space="preserve"
   inkscape:export-filename="adr_logo.svg"
   inkscape:export-xdpi="96"
   inkscape:export-ydpi="96"
   inkscape:version="1.2.2 (b0a8486541, 2022-12-01)"
   sodipodi:docname="adr_logo.svg"
   xmlns:inkscape="http://www.inkscape.org/namespaces/inkscape"
   xmlns:sodipodi="http://sodipodi.sourceforge.net/DTD/sodipodi-0.dtd"
   xmlns="http://www.w3.org/2000/svg"
   xmlns:svg="http://www.w3.org/2000/svg"><sodipodi:namedview
     id="namedview23"
     pagecolor="#ffffff"
     bordercolor="#000000"
     borderopacity="0.25"
     inkscape:showpageshadow="2"
     inkscape:pageopacity="0.0"
     inkscape:pagecheckerboard="0"
     inkscape:deskcolor="#d1d1d1"
     inkscape:document-units="mm"
     showgrid="false"
     showguides="true"
     inkscape:zoom="8"
     inkscape:cx="106.25"
     inkscape:cy="39.8125"
     inkscape:window-width="3774"
     inkscape:window-height="2091"
     inkscape:window-x="2226"
     inkscape:window-y="444"
     inkscape:window-maximized="1"
     inkscape:current-layer="layer1"><sodipodi:guide
       position="25.740115,17"
       orientation="0,-1"
       id="guide318"
       inkscape:locked="false" /><sodipodi:guide
       position="19.267405,0"
       orientation="0,-1"
       id="guide320"
       inkscape:locked="false" /></sodipodi:namedview><defs
     id="defs18" /><g
     inkscape:label="Layer 1"
     inkscape:groupmode="layer"
     id="layer1"><rect
       style="display:none;fill:#6d6d6d;fill-opacity:1;stroke:none;stroke-width:1.881;stroke-linejoin:round"
       id="rect291"
       width="50"
       height="17"
       x="0"
       y="0"
       ry="0"
       inkscape:label="bg" /><path
       id="path1275"
       style="opacity:1;fill:#ffffff;stroke:none;stroke-width:0.281001;stroke-linejoin:round;stroke-opacity:1;fill-opacity:1"
       inkscape:label="R"
       d="M 33.117875 0 C 34.547526 0.80123818 35.59077 2.0368366 36.131128 3.5357015 C 39.042564 3.5562 42.634068 3.5820584 43.630412 3.5925456 C 45.172541 3.6087778 45.688748 3.7085933 45.659229 5.1185506 C 45.624871 6.7597248 43.970953 7.3101481 43.224235 7.3101481 L 39.572262 7.3101481 L 40.221318 4.5992025 L 36.419482 4.5992025 C 36.4294 4.6514134 36.440652 4.7031078 36.449455 4.7557821 C 37.015958 8.1457857 35.874596 11.263813 33.897156 13.592452 L 33.014006 16.999996 L 37.104712 16.999996 L 38.549585 10.913546 L 40.318986 10.930082 L 43.727563 16.999996 L 48.391878 16.999996 L 44.6288 10.522872 C 47.353524 10.097293 50.000049 6.9989963 50.000049 4.0798543 C 50.000049 0.93067001 47.266162 0 45.707804 0 L 33.117875 0 z M 32.627983 1.9440674 L 32.656921 3.5114136 C 32.656921 3.5114136 33.681446 3.5186258 33.982939 3.5207153 C 33.665801 2.8857886 33.217919 2.353343 32.627983 1.9440674 z " /><path
       style="display:none;fill:#ffffff;stroke:none;stroke-width:0.281001;stroke-linejoin:round;stroke-opacity:1;fill-opacity:1"
       d="m 21.463969,-0.37333595 h 13.116219 c 1.558359,0 4.291939,0.93053273 4.291939,4.07972015 0,2.9191449 -2.646704,6.0177599 -5.37143,6.4433388 l 3.76352,6.476941 h -4.664448 l -3.408913,-6.069982 -1.769393,-0.01623 -1.444731,6.086215 H 21.886036 L 25.100154,4.225838 h 3.993306 l -0.649324,2.7108999 h 3.652417 c 0.746719,0 2.400578,-0.5502701 2.434936,-2.1914459 0.02952,-1.4099587 -0.486987,-1.5096653 -2.029118,-1.5258975 -1.54213,-0.016232 -10.973455,-0.081163 -10.973455,-0.081163 z"
       id="path1275-2"
       sodipodi:nodetypes="cscccccccccccssscc"
       inkscape:label="R" /><path
       id="path346"
       style="fill:#ffffff;stroke-width:1.881;stroke-linejoin:round;fill-opacity:1"
       inkscape:label="A"
       d="M 13.515454 0 L 0 16.999996 L 4.7661174 16.999996 L 7.6718831 13.346472 L 14.586707 13.346472 L 14.895215 16.999996 L 16.810343 16.999996 L 18.281571 11.507825 L 18.132743 9.794751 L 10.171472 9.8877686 L 13.95367 4.8555176 L 14.321606 8.7317668 L 18.037659 8.7017944 L 17.281632 0 L 13.515454 0 z " /><path
       style="display:none;fill:#ffffff;fill-opacity:1;stroke-width:1.881;stroke-linejoin:round"
       d="M 20.788775,16.626662 34.304229,-0.37333395 h 3.766178 l 0.755992,8.70184335 -3.716171,0.03013 -0.367783,-3.8764558 -3.782199,5.0322502 7.961113,-0.092923 0.625961,7.2051512 h -3.86333 l -0.308508,-3.653524 h -6.914824 l -2.905766,3.653524 z"
       id="path346-6"
       inkscape:label="A" /><g
       id="path1038-3"
       inkscape:label="D"
       style="fill:#ffffff;fill-opacity:1"><path
         style="color:#000000;display:none;fill:#ffffff;stroke-linejoin:round;-inkscape-stroke:none;fill-opacity:1"
         d="m 18.320312,-1 a 1.0001,1.0001 0 0 0 -0.996093,1.09570312 l 0.341797,3.55664068 a 1.0001,1.0001 0 0 0 0.998046,0.9042968 c 0,0 1.073388,4.909e-4 1.386719,0 L 16.787109,16.740234 A 1.0001,1.0001 0 0 0 17.751953,18 h 6.996094 c 3.17997,1e-6 6.361187,-1.471845 8.644531,-3.847656 2.283345,-2.375811 3.669828,-5.7271227 3.056641,-9.3964846 C 35.891588,1.4189462 33.088025,-1 29.033203,-1 Z m 1.101563,2 h 9.611328 c 3.331729,0 5.02589,1.5877605 5.443359,4.0859375 0.500915,2.9975123 -0.605902,5.6844215 -2.52539,7.6816405 C 30.031684,14.764798 27.298302,16 24.748047,16 h -5.691406 l 2.789062,-10.4179688 1.847656,0.00781 -2.019531,7.4121098 a 1.0001,1.0001 0 0 0 0.939453,1.261718 c 0,0 1.945205,0.04947 3.248047,0.01563 0.995369,-0.02585 2.293619,-0.467898 3.636719,-1.433594 1.3431,-0.965695 2.637867,-2.530989 2.945312,-4.7343744 0.322455,-2.310954 -0.336697,-3.8943225 -1.386718,-4.703125 -1.050022,-0.8088025 -2.245129,-0.8426074 -2.81836,-0.8515625 -1.026898,-0.016042 -7.344419,-0.0026 -8.667969,0 z m 6.53125,3.5566406 c 0.862862,7.644e-4 2.03116,-0.00348 2.253906,0 0.465679,0.00727 1.177386,0.087753 1.628906,0.4355469 0.451521,0.3477937 0.888877,0.9646576 0.626954,2.8417969 -0.220779,1.5822655 -1.110202,2.6548146 -2.13086,3.3886716 -1.020657,0.733858 -2.266922,1.051982 -2.521484,1.058594 -0.709592,0.01843 -1.189533,7.29e-4 -1.865235,-0.0098 l 2.019532,-7.412109 a 1.0001,1.0001 0 0 0 -0.01172,-0.3027344 z"
         id="path959"
         inkscape:label="Border" /><path
         style="color:#000000;fill:#ffffff;stroke-width:2;stroke-linejoin:round;-inkscape-stroke:none;fill-opacity:1"
         d="m 18.32044,-1.9e-6 0.340891,3.556923 c 0,0 8.522286,-0.01623 9.561199,0 1.03891,0.01623 3.814731,0.227261 3.230353,4.4153585 -0.528224,3.7856554 -4.366665,5.2757024 -5.616597,5.3081694 -1.249933,0.03247 -3.197888,-0.01623 -3.197888,-0.01623 L 25,4.5958291 l -3.919961,-0.01623 -3.327754,12.4204019 6.996398,10e-7 c 5.730231,1e-6 11.82784,-5.412629 10.713738,-12.0795099 C 34.97487,2.0029441 32.727455,2.1e-6 29.034176,2.1e-6 Z"
         id="path957"
         inkscape:label="Letter" /></g></g></svg>
