<?xml version="1.0" encoding="UTF-8" standalone="no"?>
<!-- Created with Inkscape (http://www.inkscape.org/) -->

<svg
   width="230mm"
   height="80mm"
   viewBox="0 0 230 80"
   version="1.1"
   id="svg1"
   inkscape:version="1.4.2 (f4327f4, 2025-05-13)"
   sodipodi:docname="LSY_Logo_white.svg"
   xml:space="preserve"
   inkscape:export-filename="LSY_Logo_white.png"
   inkscape:export-xdpi="120"
   inkscape:export-ydpi="120"
   xmlns:inkscape="http://www.inkscape.org/namespaces/inkscape"
   xmlns:sodipodi="http://sodipodi.sourceforge.net/DTD/sodipodi-0.dtd"
   xmlns="http://www.w3.org/2000/svg"
   xmlns:svg="http://www.w3.org/2000/svg"><sodipodi:namedview
     id="namedview1"
     pagecolor="#eeeeee"
     bordercolor="#000000"
     borderopacity="0.25"
     inkscape:showpageshadow="2"
     inkscape:pageopacity="0.0"
     inkscape:pagecheckerboard="0"
     inkscape:deskcolor="#d1d1d1"
     inkscape:document-units="mm"
     inkscape:zoom="2"
     inkscape:cx="489.75"
     inkscape:cy="220.75"
     inkscape:window-width="3840"
     inkscape:window-height="2054"
     inkscape:window-x="2149"
     inkscape:window-y="641"
     inkscape:window-maximized="1"
     inkscape:current-layer="layer2"
     showguides="true"
     showgrid="true"><inkscape:grid
       id="grid4"
       units="mm"
       originx="0"
       originy="0"
       spacingx="9.9999999"
       spacingy="9.9999999"
       empcolor="#0099e5"
       empopacity="0.30196078"
       color="#0099e5"
       opacity="0.14901961"
       empspacing="5"
       enabled="true"
       visible="true" /><inkscape:page
       x="0"
       y="0"
       width="230"
       height="80"
       id="page2"
       margin="0"
       bleed="0" /></sodipodi:namedview><defs
     id="defs1" /><g
     inkscape:label="Logos"
     inkscape:groupmode="layer"
     id="layer1"><g
       id="text1-2"
       style="font-stretch:condensed;font-size:96px;line-height:120.945px;font-family:'Futura Condensed PT';-inkscape-font-specification:'Futura Condensed PT Condensed';text-align:end;word-spacing:0px;white-space:pre;fill:#ffffff;stroke-width:4.53543;stroke-linejoin:round"
       inkscape:label="LSY_Text_left"
       transform="matrix(0.26458333,0,0,0.26458333,-453.00008,-195.16995)"
       aria-label="LEARNING SYSTEMS&#10;ROBOTICS LAB"><path
         style="letter-spacing:-0.6px"
         d="m 2034.3602,859.48808 v -5.472 h -13.824 v -58.56 h -5.952 v 64.032 z m 24.84,0 v -5.472 h -14.016 v -25.056 h 13.632 v -5.472 h -13.632 v -22.56 h 14.016 v -5.472 h -19.968 v 64.032 z m 34.1521,0 -12.768,-64.032 h -5.568 l -12.672,64.032 h 6.336 l 2.4,-13.152 h 13.536 l 2.4,13.152 z m -9.696,-18.336 h -11.616 c 2.208,-12.48 4.704,-24.96 5.568,-37.632 0.288,5.088 0.864,10.08 1.824,15.072 z m 43.08,18.336 -14.88,-30.72 c 9.696,-0.768 12.672,-7.296 12.672,-16.128 0,-5.952 -1.152,-12.288 -6.912,-15.36 -3.36,-1.824 -7.296,-1.824 -11.04,-1.824 h -8.064 v 64.032 h 6.528 v -31.296 l 14.88,31.296 z m -21.696,-36 v -22.56 h 3.168 c 8.16,0 9.696,3.936 9.696,11.328 0,6.72 -1.248,11.232 -8.928,11.232 z m 55.176,36 v -64.032 h -5.184 v 43.2 c 0,2.592 0.192,5.28 0.576,7.872 -0.768,-2.496 -1.44,-5.088 -2.304,-7.584 l -14.496,-43.488 h -5.184 v 64.032 h 5.184 v -41.184 c 0,-3.36 -0.192,-6.72 -0.576,-10.08 0.768,3.072 1.632,6.048 2.592,9.024 l 14.208,42.24 z m 15.9119,0 v -64.032 h -5.952 v 64.032 z m 36.456,0 v -64.032 h -5.184 v 43.2 c 0,2.592 0.192,5.28 0.576,7.872 -0.768,-2.496 -1.44,-5.088 -2.304,-7.584 l -14.496,-43.488 h -5.184 v 64.032 h 5.184 v -41.184 c 0,-3.36 -0.192,-6.72 -0.576,-10.08 0.768,3.072 1.632,6.048 2.592,9.024 l 14.208,42.24 z m 36.9359,-33.792 h -14.688 v 5.472 h 8.736 v 10.176 c 0,5.184 -0.288,13.248 -7.296,13.248 -4.128,0 -6.048,-2.592 -7.296,-6.24 -2.112,-6.144 -2.016,-17.952 -2.016,-24.672 0,-6.528 0.096,-23.328 9.504,-23.328 4.896,0 6.336,4.608 7.104,8.64 l 5.856,-2.304 c -1.824,-6.912 -5.088,-12.096 -12.96,-12.096 -15.264,0 -15.552,20.352 -15.552,31.296 0,7.392 0.288,21.984 3.936,28.32 2.4,4.128 6.24,6.144 11.04,6.144 7.776,0 12,-5.184 13.152,-12.48 0.48,-3.072 0.48,-6.24 0.48,-9.312 z m 51.504,-27.648 c -3.072,-2.208 -6.144,-3.456 -9.984,-3.456 -9.408,0 -14.784,8.256 -14.784,16.992 0,17.952 21.888,16.896 21.888,31.584 0,5.76 -3.456,11.424 -9.696,11.424 -4.224,0 -7.584,-2.304 -10.368,-5.184 v 7.68 c 2.88,2.112 6.432,3.36 10.08,3.36 9.792,0 16.032,-8.832 16.032,-18.048 0,-17.76 -21.888,-16.8 -21.888,-31.584 0,-5.472 3.36,-10.464 9.216,-10.464 4.224,0 6.912,2.112 9.504,5.184 z m 33.1921,-2.592 h -6.432 l -5.472,18.432 c -1.824,6.048 -2.4,9.216 -2.784,11.712 -0.864,-4.32 -2.304,-9.504 -3.072,-11.808 l -5.952,-18.336 h -6.432 l 12.48,36.288 v 27.744 h 5.952 v -27.744 z m 26.184,2.592 c -3.072,-2.208 -6.144,-3.456 -9.984,-3.456 -9.408,0 -14.784,8.256 -14.784,16.992 0,17.952 21.888,16.896 21.888,31.584 0,5.76 -3.456,11.424 -9.696,11.424 -4.224,0 -7.584,-2.304 -10.368,-5.184 v 7.68 c 2.88,2.112 6.432,3.36 10.08,3.36 9.792,0 16.032,-8.832 16.032,-18.048 0,-17.76 -21.888,-16.8 -21.888,-31.584 0,-5.472 3.36,-10.464 9.216,-10.464 4.224,0 6.912,2.112 9.504,5.184 z m 28.2,2.88 v -5.472 h -25.152 v 5.472 h 9.6 v 58.56 h 5.952 v -58.56 z m 24.84,58.56 v -5.472 h -14.016 v -25.056 h 13.632 v -5.472 h -13.632 v -22.56 h 14.016 v -5.472 h -19.968 v 64.032 z m 48.936,0 -7.872,-64.032 h -5.088 l -7.488,44.16 c -0.576,3.264 -0.96,6.528 -1.152,9.888 -0.192,-3.36 -0.768,-6.72 -1.248,-10.08 l -6.912,-43.968 h -5.088 l -9.024,64.032 h 5.856 l 5.184,-41.664 c 0.384,-3.072 0.576,-6.24 0.576,-9.312 v -2.208 c 0.192,1.824 0.192,3.552 0.384,5.376 1.824,16.032 4.992,31.872 7.584,47.808 h 4.896 l 7.104,-41.568 c 0.672,-3.84 1.152,-7.68 1.344,-11.616 0.192,3.84 0.192,7.776 0.576,11.616 l 4.512,41.568 z m 28.1041,-61.44 c -3.072,-2.208 -6.144,-3.456 -9.984,-3.456 -9.408,0 -14.784,8.256 -14.784,16.992 0,17.952 21.888,16.896 21.888,31.584 0,5.76 -3.456,11.424 -9.696,11.424 -4.224,0 -7.584,-2.304 -10.368,-5.184 v 7.68 c 2.88,2.112 6.432,3.36 10.08,3.36 9.792,0 16.032,-8.832 16.032,-18.048 0,-17.76 -21.888,-16.8 -21.888,-31.584 0,-5.472 3.36,-10.464 9.216,-10.464 4.224,0 6.912,2.112 9.504,5.184 z"
         id="path1" /><path
         style="letter-spacing:0.2px"
         d="m 2159.0206,980.43308 -14.88,-30.72 c 9.696,-0.768 12.672,-7.296 12.672,-16.128 0,-5.952 -1.152,-12.288 -6.912,-15.36 -3.36,-1.824 -7.296,-1.824 -11.04,-1.824 h -8.064 v 64.032 h 6.528 v -31.296 l 14.88,31.296 z m -21.696,-36 v -22.56 h 3.168 c 8.16,0 9.696,3.936 9.696,11.328 0,6.72 -1.248,11.232 -8.928,11.232 z m 58.3758,3.744 c 0,-10.752 -0.672,-32.64 -15.744,-32.64 -14.784,0 -15.744,22.368 -15.744,32.928 0,10.656 0.864,32.832 15.84,32.832 15.264,0 15.648,-22.368 15.648,-33.12 z m -6.048,-2.112 c 0,4.896 -0.096,9.792 -0.576,14.592 -0.48,5.472 -1.824,14.88 -9.024,14.88 -9.888,0 -9.792,-20.448 -9.792,-27.168 0,-6.816 -0.192,-27.072 9.792,-27.072 9.504,0 9.6,18.24 9.6,24.768 z m 15.176,-29.664 v 64.032 h 9.792 c 3.744,0 7.008,-0.288 10.08,-2.688 4.416,-3.456 5.28,-9.12 5.28,-14.4 0,-7.68 -1.152,-13.536 -9.408,-15.744 6.336,-2.976 7.872,-8.352 7.872,-14.88 0,-4.512 -1.056,-11.232 -4.896,-14.112 -2.688,-2.016 -6.144,-2.208 -9.408,-2.208 z m 5.952,28.32 v -23.136 h 3.744 c 7.584,0 7.872,5.376 7.872,11.424 0,6.336 -0.672,11.712 -8.448,11.712 z m 0,30.624 v -25.344 h 3.456 c 7.68,0 9.6,6.72 9.6,13.152 0,7.2 -1.728,12.192 -9.888,12.192 z m 57.8,-27.168 c 0,-10.752 -0.672,-32.64 -15.744,-32.64 -14.784,0 -15.744,22.368 -15.744,32.928 0,10.656 0.864,32.832 15.84,32.832 15.264,0 15.648,-22.368 15.648,-33.12 z m -6.048,-2.112 c 0,4.896 -0.096,9.792 -0.576,14.592 -0.48,5.472 -1.824,14.88 -9.024,14.88 -9.888,0 -9.792,-20.448 -9.792,-27.168 0,-6.816 -0.192,-27.072 9.792,-27.072 9.504,0 9.6,18.24 9.6,24.768 z m 34.664,-24.192 v -5.472 h -25.152 v 5.472 h 9.6 v 58.56 h 5.952 v -58.56 z m 11.6239,58.56 v -64.032 h -5.952 v 64.032 z m 34.376,-7.776 c -2.304,1.536 -4.992,2.88 -7.872,2.88 -3.072,0 -5.472,-1.44 -7.2,-3.936 -3.552,-5.088 -4.224,-17.184 -4.224,-23.424 0,-8.064 0.384,-26.88 11.904,-26.88 2.784,0 5.184,1.344 7.392,2.784 v -6.528 c -2.304,-1.44 -4.992,-2.016 -7.68,-2.016 -16.32,0 -17.664,22.752 -17.664,34.56 0,7.968 0.576,18.24 5.472,24.96 2.688,3.648 6.912,6.24 11.52,6.24 2.976,0 5.856,-1.056 8.352,-2.688 z m 28.6159,-53.664 c -3.072,-2.208 -6.144,-3.456 -9.984,-3.456 -9.408,0 -14.784,8.256 -14.784,16.992 0,17.952 21.888,16.896 21.888,31.584 0,5.76 -3.456,11.424 -9.696,11.424 -4.224,0 -7.584,-2.304 -10.368,-5.184 v 7.68 c 2.88,2.112 6.432,3.36 10.08,3.36 9.792,0 16.032,-8.832 16.032,-18.048 0,-17.76 -21.888,-16.8 -21.888,-31.584 0,-5.472 3.36,-10.464 9.216,-10.464 4.224,0 6.912,2.112 9.504,5.184 z"
         id="path2" /><path
         style="letter-spacing:0.2px"
         d="m 2425.5443,980.43308 v -5.472 h -13.824 v -58.56 h -5.952 v 64.032 z m 34.9519,0 -12.768,-64.032 h -5.568 l -12.672,64.032 h 6.336 l 2.4,-13.152 h 13.536 l 2.4,13.152 z m -9.696,-18.336 h -11.616 c 2.208,-12.48 4.704,-24.96 5.568,-37.632 0.288,5.088 0.864,10.08 1.824,15.072 z m 15.2721,-45.696 v 64.032 h 9.792 c 3.744,0 7.008,-0.288 10.08,-2.688 4.416,-3.456 5.28,-9.12 5.28,-14.4 0,-7.68 -1.152,-13.536 -9.408,-15.744 6.336,-2.976 7.872,-8.352 7.872,-14.88 0,-4.512 -1.056,-11.232 -4.896,-14.112 -2.688,-2.016 -6.144,-2.208 -9.408,-2.208 z m 5.952,28.32 v -23.136 h 3.744 c 7.584,0 7.872,5.376 7.872,11.424 0,6.336 -0.672,11.712 -8.448,11.712 z m 0,30.624 v -25.344 h 3.456 c 7.68,0 9.6,6.72 9.6,13.152 0,7.2 -1.728,12.192 -9.888,12.192 z"
         id="path3" /></g><path
       d="m 103.92983,67.304186 q 0,0.555625 -1.03188,1.031875 -0.87312,0.396875 -1.54781,0.396875 -1.666875,0 -3.452812,-1.150938 -1.905,-1.230312 -2.143125,-1.27 -4.722813,2.024063 -8.255,2.024063 -2.738438,0 -4.405313,-1.11125 -1.984375,-1.349375 -1.984375,-3.929063 0,-2.54 3.730625,-6.6675 0.3175,-0.3175 0.833438,-0.9525 -1.349375,-2.738437 -1.706563,-3.65125 -0.714375,-1.944687 -0.714375,-3.96875 0,-3.254375 1.865313,-5.357812 1.905,-2.103438 5.119687,-2.103438 2.262188,0 3.770313,1.468438 1.547812,1.468437 1.547812,3.730625 0,1.230312 -0.277812,2.103437 -0.635,1.825625 -6.82625,8.175625 0.07937,0.912813 3.413125,4.325938 3.373437,3.373437 4.206875,3.373437 0.674687,0 2.54,-1.349375 1.904997,-1.389062 1.904997,-1.984375 0,-0.754062 -1.944685,-1.349375 -1.5875,-0.515937 -2.619375,-0.515937 -1.031875,0 -1.984375,0.515937 -0.555625,-0.277812 -0.555625,-0.754062 0,-1.150938 1.666875,-1.150938 8.215315,0 8.215315,2.103438 0,2.659062 -5.43719,5.834062 0.47625,0.754063 1.666875,1.42875 1.230315,0.674688 2.143125,0.674688 0.27781,0 0.83344,-0.238125 0.55562,-0.277813 0.87312,-0.277813 0.11907,0 0.55563,0.15875 z M 93.531703,44.960123 q 0,-1.309687 -0.833438,-2.143125 -0.833437,-0.833437 -2.143125,-0.833437 -2.182812,0 -3.81,1.865312 -1.5875,1.865313 -1.5875,4.087813 0,1.27 0.595313,3.254375 0.635,2.143125 1.389062,2.976562 2.2225,-1.5875 4.1275,-4.048125 2.262188,-2.976562 2.262188,-5.159375 z m 0.277812,19.764375 q -3.611562,-2.976562 -6.945312,-7.14375 -3.33375,3.611563 -3.33375,6.588125 0,1.508125 1.11125,2.024063 0.754062,0.396875 2.420937,0.396875 1.150938,0 3.65125,-0.595313 2.8575,-0.635 3.095625,-1.27 z"
       id="text19-4"
       style="font-weight:300;font-size:31.75px;line-height:36px;font-family:Noteworthy;-inkscape-font-specification:'Noteworthy Light';letter-spacing:-0.15875px;word-spacing:0px;fill:#ffffff;stroke-width:1.2;stroke-linejoin:round"
       inkscape:label="LSY_&amp;_left"
       aria-label="&amp;" /><path
       id="path2-1-1-5"
       style="display:inline;fill:#ffffff;fill-opacity:1;stroke-width:0.15875"
       inkscape:label="Swoosh_left"
       d="m 39.951021,10.00004 a 29.999963,29.999948 0 0 0 -19.47816,7.22498 c 2.73753,1.43641 6.62,2.86815 9.66948,3.51823 1.57729,0.33624 3.73871,0.41361 5.58259,0.49919 0.92194,0.0428 1.76127,0.0865 2.50899,0.20371 0.37386,0.0586 0.72367,0.1277 1.11094,0.28371 0.38728,0.156 0.93124,0.41275 1.25977,1.13915 0.25348,0.56048 0.16872,1.09105 0.0611,1.41913 -0.10763,0.32809 -0.2448,0.5434 -0.38447,0.74166 -0.19842,0.28165 -0.41721,0.52645 -0.66415,0.77173 0.0358,0.0175 0.0727,0.0371 0.111,0.0592 0.18166,0.10509 0.50079,0.30388 0.58725,0.80616 0.10674,0.62006 -0.13981,1.05369 -0.39284,1.43804 -0.1858,0.28225 -0.41251,0.55322 -0.67685,0.83034 0.10161,0.0553 0.19931,0.11869 0.29269,0.19255 0.32352,0.25593 0.55909,0.66409 0.61391,1.09575 0.0908,0.71464 -0.25422,1.36183 -0.76398,1.96979 -0.0187,0.0223 -0.0376,0.0447 -0.0568,0.067 0.0919,0.0388 0.18069,0.0871 0.26541,0.14759 0.2452,0.17519 0.418,0.44933 0.50509,0.74538 0.21092,0.71709 -0.16967,1.38708 -0.69857,2.13878 -0.0526,0.0748 -0.10773,0.15049 -0.16495,0.22696 0.22562,0.0249 0.42242,0.0572 0.60027,0.11038 9.16722,-3.2397 16.7135,-6.53794 26.11776,-10.67034 a 29.999963,29.999948 0 0 0 -26.0055,-14.95907 z m -21.96731,9.62111 a 29.999963,29.999948 0 0 0 -0.39098,0.43067 c 2.83087,1.57295 7.27513,3.19165 10.62755,4.1309 1.60695,0.45022 4.42374,0.72711 6.80981,0.94444 0.0674,0.006 0.13453,0.0122 0.20123,0.0183 0.23906,-0.19387 0.45964,-0.37999 0.70693,-0.57857 -0.14502,-0.008 -0.21284,-0.0208 -0.36555,-0.0279 -1.79655,-0.0834 -4.07552,-0.13315 -6.11838,-0.56865 -3.80142,-0.81037 -8.30582,-2.51491 -11.47061,-4.34918 z m -1.67742,1.97724 a 29.999963,29.999948 0 0 0 -0.10821,0.14015 c 2.88185,1.78778 7.22531,3.98147 10.61361,5.25176 1.45739,0.54638 2.87768,0.87191 4.21276,1.07187 0.59,-0.37828 1.18294,-0.76823 1.75958,-1.15776 -1.82417,-0.18286 -3.6856,-0.41943 -5.09798,-0.81514 -3.60054,-1.00877 -8.27687,-2.69421 -11.37976,-4.49088 z m -0.92552,1.2579 a 29.999963,29.999948 0 0 0 -0.18262,0.26541 c 2.74281,2.07672 8.40104,5.84155 11.77074,7.0563 0.11791,0.0425 0.23488,0.084 0.35067,0.12465 0.0383,-0.0216 0.0759,-0.0428 0.11317,-0.0639 0.56701,-0.31966 1.19548,-0.68925 1.85446,-1.09048 -0.95618,-0.20705 -1.94813,-0.4862 -2.95951,-0.86537 -3.54769,-1.33004 -7.96594,-3.56629 -10.94691,-5.42664 z m -0.7429,1.11963 a 29.999963,29.999948 0 0 0 -0.19441,0.31191 c 3.23983,2.83744 6.45147,5.71856 9.929,7.68603 0.63661,-0.3656 1.23677,-0.7062 1.78128,-1.01389 -3.62,-1.44038 -8.81433,-4.94262 -11.51587,-6.98405 z m -0.63128,1.04551 a 29.999963,29.999948 0 0 0 -0.1265,0.22169 v 3.1e-4 c 3.35538,3.56601 6.11698,6.04807 8.5421,7.86493 0.37519,-0.22128 0.74529,-0.43766 1.10722,-0.64771 -3.37892,-1.98844 -6.45674,-4.75182 -9.52282,-7.43922 z m -0.4902,0.8849 A 29.999963,29.999948 0 0 0 10.000021,40.03258 29.999963,29.999948 0 0 0 40.016141,70 29.999963,29.999948 0 0 0 69.904821,42.38623 c -10.06385,7.66579 -19.76487,13.14709 -29.769,14.9603 -2.48954,0.45123 -4.74665,0.67863 -6.49789,0.55656 -0.87562,-0.061 -1.62673,-0.20683 -2.22777,-0.47687 -0.60103,-0.27004 -1.06448,-0.68578 -1.26101,-1.25264 -0.12288,-0.35445 -0.15051,-0.72655 -0.10046,-1.11621 -0.76617,-0.0502 -1.42208,-0.16541 -1.95832,-0.36277 -0.65566,-0.2413 -1.17119,-0.63607 -1.33852,-1.221 -0.11453,-0.40033 -0.10851,-0.81079 -0.007,-1.23279 -0.5401,-0.0258 -1.033,-0.0824 -1.46999,-0.17457 -0.89565,-0.18894 -1.649,-0.53261 -1.90314,-1.26565 -0.14106,-0.40691 -0.11486,-0.83009 0.0158,-1.25853 -0.43703,-0.003 -0.84499,-0.0244 -1.21915,-0.067 -0.52866,-0.0601 -0.99129,-0.15936 -1.39588,-0.342 -0.40459,-0.18264 -0.78844,-0.48261 -0.94909,-0.94598 -0.15188,-0.4381 -0.10536,-0.86052 0.0539,-1.26969 -0.53923,-0.004 -1.03954,-0.0352 -1.49541,-0.10232 -0.52043,-0.0766 -0.98788,-0.1936 -1.41913,-0.43129 -0.43126,-0.23769 -0.85983,-0.67378 -0.9773,-1.24705 -0.0268,-0.13084 -0.038,-0.25714 -0.0363,-0.3792 -0.10186,-0.001 -0.2023,-0.003 -0.30138,-0.006 -0.72844,-0.0228 -1.37839,-0.0884 -2.03089,-0.31657 -0.65249,-0.22817 -1.51111,-0.77655 -1.74469,-1.77757 -0.23826,-1.02105 0.1938,-1.73561 0.58228,-2.28388 0.38849,-0.54827 0.87172,-1.02857 1.44364,-1.53076 1.14382,-1.00438 2.65225,-2.064 4.29864,-3.13345 1.15132,-0.74785 2.36899,-1.4965 3.55606,-2.20451 -2.36772,-1.79983 -5.04014,-4.21449 -8.237,-7.59828 z m 24.2419,1.48983 c -0.43208,0.33504 -0.89823,0.68053 -1.38999,1.03436 -0.004,0.002 -0.007,0.005 -0.0103,0.007 0.17177,0.007 0.33892,0.014 0.50137,0.0229 0.26202,-0.22557 0.49806,-0.43948 0.70197,-0.63841 0.16784,-0.16375 0.23444,-0.26604 0.35377,-0.40308 -0.0179,-0.002 -0.0214,-0.005 -0.0397,-0.007 -0.0382,-0.005 -0.0773,-0.0107 -0.1172,-0.0161 z m 29.69521,0.50974 c -9.84623,4.32672 -17.75188,7.7853 -27.5803,11.20829 0.006,0.003 0.0118,0.007 0.0177,0.01 0.26995,0.15476 0.47928,0.42296 0.55687,0.74414 0.0355,0.14669 0.0566,0.29421 0.0645,0.44307 9.54277,-3.14922 17.72672,-6.82127 27.49596,-11.05853 a 29.999963,29.999948 0 0 0 -0.55469,-1.3469 z m -32.98678,1.84577 c -0.91673,0.61669 -1.86243,1.2269 -2.7772,1.79493 0.2885,0.0608 0.56697,0.11475 0.83592,0.16278 0.75441,-0.5213 1.49694,-1.04697 2.18932,-1.55835 0.16883,-0.12469 0.33477,-0.24868 0.49702,-0.37145 -0.23984,-0.008 -0.48832,-0.0171 -0.74506,-0.0279 z m 3.65031,0.24061 c -0.65059,0.55902 -1.40783,1.14723 -2.2256,1.75121 -0.13892,0.10261 -0.2796,0.20555 -0.42168,0.30881 0.38805,0.0203 0.74328,0.029 1.06846,0.0322 0.38227,0.004 0.72184,-0.002 1.02878,-0.005 0.31495,-0.28625 0.57107,-0.54462 0.76305,-0.77359 0.39381,-0.46967 0.4727,-0.75916 0.45362,-0.9094 -0.0148,-0.11653 -0.0236,-0.12429 -0.10201,-0.18634 -0.0785,-0.0621 -0.26144,-0.15027 -0.55191,-0.21549 -0.004,-10e-4 -0.008,-0.002 -0.0127,-0.003 z m 30.54074,1.13606 c -10.14861,4.40309 -18.68631,8.23673 -28.87976,11.50408 -0.16859,0.28438 -0.36151,0.57578 -0.5736,0.8756 -0.41294,0.58374 -0.90643,1.20528 -1.45945,1.87399 12.33554,-3.78713 19.31436,-7.52288 31.23712,-13.12848 a 29.999963,29.999948 0 0 0 -0.32431,-1.12519 z m -38.21406,1.17697 c -0.4849,0.28948 -0.95173,0.56077 -1.3903,0.80801 -0.29264,0.16499 -0.61711,0.34771 -0.96739,0.5454 0.34901,0.12389 0.69294,0.23871 1.03126,0.34509 0.70915,-0.46932 1.46581,-0.97249 2.23056,-1.48982 -0.29192,-0.0628 -0.5933,-0.13214 -0.90413,-0.20868 z m 3.73465,0.66694 c -0.83248,0.58237 -1.68461,1.16045 -2.50682,1.7109 0.73368,0.16048 1.43107,0.28398 2.08731,0.38013 0.9967,-0.74 1.86552,-1.38809 2.58899,-1.9605 -0.61575,-0.01 -1.33509,-0.0424 -2.16948,-0.13053 z m 4.30268,0.14511 c -0.36138,0.32702 -0.77496,0.66924 -1.23961,1.03776 -0.44727,0.35473 -0.94227,0.73276 -1.48239,1.13853 0.16865,0.0145 0.33309,0.0276 0.4933,0.0394 0.65775,0.0484 1.24226,0.0756 1.74966,0.10108 0.21674,-0.25703 0.40734,-0.50096 0.5671,-0.72801 0.46634,-0.6628 0.58028,-1.17762 0.55438,-1.26566 -0.0407,-0.13858 -0.0708,-0.16661 -0.11968,-0.20154 -0.0489,-0.0349 -0.15418,-0.0791 -0.35502,-0.10542 -0.0508,-0.007 -0.10683,-0.012 -0.16774,-0.0161 z m 30.83281,0.50539 c -12.3722,5.82359 -19.56192,9.68464 -33.19235,13.68752 -0.25776,0.30507 -0.52217,0.61908 -0.79158,0.94257 -0.66922,0.80352 -1.30441,1.56963 -1.87648,2.29164 1.20625,-0.24252 2.43459,-0.54174 3.62149,-0.88645 13.95077,-4.05177 20.30368,-7.95527 32.53223,-14.4946 a 29.999963,29.999948 0 0 0 -0.29331,-1.54068 z m -42.1859,0.57857 c -0.52518,0.29833 -1.08759,0.61954 -1.67245,0.95777 0.13221,0.0796 0.26345,0.15761 0.39408,0.23378 0.21032,0.12265 0.41833,0.24069 0.62414,0.3544 0.36815,-0.24032 0.71843,-0.46984 1.04459,-0.68616 0.22451,-0.1489 0.45994,-0.30463 0.70414,-0.46602 -0.35949,-0.12175 -0.72437,-0.25265 -1.0945,-0.39377 z m 3.58458,1.12086 c -0.75987,0.50416 -1.47428,0.97425 -2.09971,1.38906 -0.031,0.0206 -0.0622,0.0412 -0.0936,0.062 0.66982,0.30141 1.31164,0.55583 1.92515,0.77111 0.84462,-0.6431 1.63723,-1.23517 2.37226,-1.78159 -0.66639,-0.11558 -1.36929,-0.25964 -2.10406,-0.44059 z m -5.9649,0.24804 c -1.55899,0.91022 -3.22938,1.91614 -4.75257,2.90556 -1.57708,1.02442 -2.99874,2.03981 -3.91759,2.84664 -0.0533,0.0469 -0.0581,0.0658 -0.1079,0.11131 0.68896,0.01 1.55812,-0.0386 2.54837,-0.14541 0.53586,-0.4458 1.13044,-0.90153 1.76175,-1.36395 1.74579,-1.27875 3.7726,-2.59959 5.51377,-3.73372 -0.10192,-0.0579 -0.20437,-0.11673 -0.30727,-0.17673 -0.24357,-0.14203 -0.48973,-0.28984 -0.73856,-0.4437 z m 10.01271,0.46881 c -0.81671,0.60684 -1.71622,1.2716 -2.69162,2.00639 0.10869,0.0289 0.21622,0.0565 0.32277,0.0831 1.54929,-0.49383 3.04085,-0.98425 4.48686,-1.47432 0.13842,-0.14013 0.27254,-0.27876 0.40152,-0.41517 -0.33571,-0.018 -0.69996,-0.0395 -1.08954,-0.0682 -0.44405,-0.0327 -0.92159,-0.0748 -1.42999,-0.13177 z m 35.00247,0.19813 c -12.0013,6.42631 -18.48822,10.35905 -32.40294,14.40033 -1.58962,0.46169 -3.24437,0.84335 -4.83412,1.11994 -0.28388,0.3882 -0.54092,0.7603 -0.76522,1.11496 -0.31542,0.49872 -0.55968,0.95869 -0.72864,1.37542 1.83542,-0.002 4.25326,-0.31528 6.95244,-0.91839 12.61518,-2.81876 20.49821,-8.18981 31.95893,-15.16742 a 29.999963,29.999948 0 0 0 -0.18045,-1.92484 z m -41.95088,1.00118 c -1.54287,1.00995 -3.40481,2.20514 -5.10572,3.38769 1.79841,-0.3512 3.65304,-0.78062 5.32742,-1.21759 0.21086,-0.16271 0.41718,-0.32303 0.61794,-0.48029 0.38055,-0.29808 0.75283,-0.58652 1.11621,-0.86599 -0.62579,-0.2331 -1.27789,-0.50548 -1.95585,-0.82382 z m 42.17506,1.88143 c -11.23606,6.85324 -19.20212,12.20952 -31.81973,15.02882 -2.86137,0.63935 -5.41646,0.96417 -7.38249,0.937 -0.0527,0.32443 -0.0389,0.60966 0.0452,0.85235 0.11952,0.34474 0.39318,0.61434 0.8753,0.83096 0.48212,0.21661 1.16016,0.35875 1.98282,0.41609 1.64531,0.11469 3.86347,-0.10127 6.31899,-0.54632 9.99643,-1.81182 19.76112,-7.37493 29.95844,-15.20556 a 29.999963,29.999948 0 0 0 0.0344,-1.43309 l -3.1e-4,-0.0651 a 29.999963,29.999948 0 0 0 -0.0127,-0.81514 z m -30.99621,0.4719 c -0.25042,0.32703 -0.52458,0.66467 -0.81763,1.01018 -0.17688,0.20854 -0.3606,0.42005 -0.55004,0.63344 0.73035,-0.22601 1.45145,-0.45503 2.16483,-0.68677 0.0118,-0.18066 -10e-4,-0.35098 -0.04,-0.5116 -0.0375,-0.15526 -0.0865,-0.21438 -0.21549,-0.28835 -0.11062,-0.0634 -0.29281,-0.11857 -0.54168,-0.1569 z m -1.29264,0.26883 c -1.47717,0.49911 -3.00131,0.99855 -4.58421,1.5013 -0.65842,0.53316 -1.30666,1.04143 -1.91585,1.50626 -0.13956,0.10649 -0.27942,0.21413 -0.4192,0.32246 0.0839,-0.0218 0.1675,-0.0438 0.25053,-0.0657 1.72713,-0.45655 3.39459,-0.92646 5.01488,-1.40983 0.5312,-0.56497 1.03431,-1.12245 1.48766,-1.65695 0.0562,-0.0662 0.11159,-0.132 0.16619,-0.19751 z m -7.28265,2.32202 c -1.64683,0.46595 -3.53612,0.93857 -5.45113,1.35031 -0.46316,0.37312 -0.90795,0.74202 -1.32084,1.10132 1.52867,-0.21211 3.18976,-0.52233 4.80496,-0.88211 0.64292,-0.53556 1.30678,-1.06284 1.96701,-1.56952 z m 8.28445,0.79127 c -1.24775,0.39049 -2.52138,0.77267 -3.82674,1.14659 -0.64027,0.63697 -1.28515,1.26112 -1.90438,1.85198 -0.36187,0.3453 -0.71483,0.68358 -1.05574,1.01451 1.14232,-0.25965 2.263,-0.54781 3.30088,-0.84925 0.43072,-0.12509 0.85508,-0.25008 1.27309,-0.37485 0.84075,-0.99702 1.57229,-1.88231 2.1301,-2.67085 0.0281,-0.0397 0.0557,-0.079 0.0828,-0.11813 z m -16.50998,1.1066 c -0.47211,0.0842 -0.93923,0.16237 -1.39805,0.23378 -0.98499,0.15331 -1.92741,0.2762 -2.80789,0.35347 v 3.1e-4 c 0.12136,0.0578 0.34119,0.1367 0.68678,0.18758 0.64333,0.0947 1.58848,0.10189 2.68914,0.0248 0.2556,-0.26289 0.53379,-0.52942 0.83002,-0.79995 z m 11.00272,0.5119 c -0.54694,0.15051 -1.09935,0.29969 -1.65818,0.44742 -1.30195,0.34416 -2.6981,0.67085 -4.09619,0.9525 -0.48099,0.44526 -0.92796,0.88502 -1.32487,1.3103 -0.24261,0.25994 -0.46638,0.51493 -0.66756,0.76119 0.14888,-0.0133 0.3,-0.0281 0.453,-0.044 1.38292,-0.14426 2.92773,-0.39208 4.48282,-0.70476 0.6236,-0.62458 1.29943,-1.27448 2.007,-1.94964 0.26428,-0.25217 0.53299,-0.51037 0.80398,-0.77298 z m -7.562,1.73788 c -1.2153,0.20863 -2.40142,0.37306 -3.49591,0.47439 -0.21955,0.0203 -0.43523,0.038 -0.64678,0.0533 -0.33729,0.4953 -0.38036,0.81436 -0.35998,0.87622 v 3.1e-4 c 10e-4,0.002 0.0295,0.0581 0.21332,0.14108 0.19933,0.09 0.54374,0.17839 0.98444,0.22851 0.4878,0.0555 1.09207,0.0695 1.77694,0.0456 0.34129,-0.49884 0.77128,-1.0138 1.26535,-1.54316 0.0856,-0.0918 0.17321,-0.18377 0.26262,-0.27626 z m 9.25244,1.33511 c -1.50658,0.41506 -3.13717,0.79638 -4.74606,1.10536 -0.51649,0.54465 -0.97499,1.06114 -1.35774,1.54594 -0.25222,0.31947 -0.46744,0.62283 -0.64492,0.90847 0.13227,-0.005 0.26679,-0.0106 0.40338,-0.018 1.1624,-0.0624 2.47662,-0.22193 3.84534,-0.46136 0.70436,-0.92121 1.52258,-1.90703 2.39396,-2.9533 0.0354,-0.0425 0.0708,-0.085 0.10604,-0.12713 z m -6.11094,1.35061 c -0.94259,0.15745 -1.86283,0.2856 -2.73037,0.3761 -0.54014,0.0563 -1.05911,0.0985 -1.55184,0.12372 -0.19148,0.43205 -0.22094,0.75544 -0.15317,0.95095 0.0619,0.17855 0.40027,0.4441 1.14939,0.60213 0.44971,0.0949 1.01417,0.14979 1.66067,0.16402 0.24893,-0.46422 0.58271,-0.94258 0.97265,-1.4365 0.20102,-0.25461 0.41917,-0.51481 0.65267,-0.78042 z m 2.75611,2.90246 c -1.0322,0.15327 -2.02368,0.25823 -2.93656,0.30726 -0.33117,0.0178 -0.65167,0.0283 -0.96056,0.031 -0.12513,0.38225 -0.15,0.71308 -0.0719,0.98599 0.0693,0.24233 0.30283,0.47304 0.82041,0.66352 0.45291,0.16668 1.09393,0.27942 1.87678,0.32215 0.19717,-0.54973 0.50974,-1.12999 0.89576,-1.74035 0.11794,-0.18649 0.24346,-0.3764 0.3761,-0.56958 z" /></g></svg>
